<svg version="1" xmlns="http://www.w3.org/2000/svg" width="346.667" height="346.667" viewBox="0 0 260.000000 260.000000"><path d="M118.5.6c-22.6 2.5-48.2 12.5-66 25.9-20.2 15.1-34.8 35-44.4 60.6C2.4 102.2.6 112.6.6 130s1.8 27.8 7.5 42.9c14.6 38.7 40.3 64.4 79 79 15.3 5.7 25.5 7.5 43.4 7.4 11.5 0 17.4-.5 25.5-2.2 50.4-10.6 90.5-50.7 101.1-101.1 2.8-13.6 3.1-36.2.6-49.1-2.2-10.9-8.4-27.8-14.3-38.9-11.6-21.5-29.9-39.8-51.4-51.4-11.1-5.9-28-12.1-38.3-14.1C145.3.9 125.6-.1 118.5.6zm-16.1 56c5.5.7 6.2 1 11.8 6.8 3.2 3.4 5.6 5.4 5.3 4.5-.4-1 .5-2.9 2-4.8 3.8-4.4 7.7-4.2 12.7.6 3.8 3.7 3.8 3.7 6.6 2 1.5-1 4.3-2.6 6.2-3.5 1.9-.9 3.7-1.9 4-2.2 1-1 6-3.3 6.3-2.9 4.4 6.5 6.7 11.6 6.7 15.2 0 4.2-3.8 13.8-5.9 15.1-1.8 1.2-1.3 2 2.5 4.1 6.8 3.7 15 13.8 20.9 25.8 7.4 15.2 9.8 25.1 9.9 39.7.2 21.1-4.4 27.9-25.7 38.4-16.1 8-25.4 10.2-39.2 9.3-11.4-.8-20-3.4-34.5-10.5-18.1-8.9-24-16.4-24-30.6 0-15.2 10.4-40.4 27-65.2l6.7-10.1-1.7-5.6c-1-3-3.9-9.8-6.5-15C88 57 88 54.4 93.3 55.4c1.7.3 5.8.9 9.1 1.2z"/><path d="M127.4 112.9c-.5 3.3-1.1 4-3.6 4.5-4.6.9-8.4 4.2-10.2 8.7-3.3 8.3.4 13.9 12.9 19.9 5.3 2.5 8.6 4.7 9 6 2.2 7-6.1 10-17.2 6.1l-5.3-1.8-1 3.6c-.5 2-1 3.8-1 4.1 0 .8 5.7 2.7 10.3 3.6 3.8.6 3.9.7 3.5 4.5-.4 3.9-.3 3.9 3.4 3.9 3.6 0 3.7-.1 4-4.2.3-4 .5-4.3 4.1-5.1 5-1.2 10.2-6.4 11-11 1.3-8.4-2.2-13.1-13.8-18.2-7.2-3.1-9.5-5.1-9.5-8.1 0-4.9 7.4-6.8 15.5-3.9 4.4 1.6 4.8 1.4 6.3-3.3l1.1-3.2-5.9-1.7c-5.8-1.6-6-1.7-6-5 0-3.1-.2-3.3-3.5-3.3s-3.5.2-4.1 3.9z"/></svg>